<svg width="18" height="18" viewBox="0 0 18 18" fill="none" xmlns="http://www.w3.org/2000/svg">
<g opacity="0.8">
<path fill-rule="evenodd" clip-rule="evenodd" d="M8.70518 1.77094C8.88597 1.65969 9.114 1.65969 9.29479 1.77094L16.6073 6.27094C16.8216 6.40284 16.9223 6.66105 16.8537 6.90319C16.7852 7.14534 16.5641 7.3125 16.3125 7.3125H1.68749C1.43583 7.3125 1.21479 7.14534 1.14625 6.90319C1.07771 6.66105 1.17835 6.40284 1.39268 6.27094L8.70518 1.77094ZM3.67482 6.1875H14.3252L8.99999 2.91048L3.67482 6.1875Z" fill="#1A181B"/>
<path fill-rule="evenodd" clip-rule="evenodd" d="M3.9375 6.1875C4.24816 6.1875 4.5 6.43934 4.5 6.75V12.375C4.5 12.6857 4.24816 12.9375 3.9375 12.9375C3.62684 12.9375 3.375 12.6857 3.375 12.375V6.75C3.375 6.43934 3.62684 6.1875 3.9375 6.1875Z" fill="#1A181B"/>
<path fill-rule="evenodd" clip-rule="evenodd" d="M7.3125 6.1875C7.62316 6.1875 7.875 6.43934 7.875 6.75V12.375C7.875 12.6857 7.62316 12.9375 7.3125 12.9375C7.00184 12.9375 6.75 12.6857 6.75 12.375V6.75C6.75 6.43934 7.00184 6.1875 7.3125 6.1875Z" fill="#1A181B"/>
<path fill-rule="evenodd" clip-rule="evenodd" d="M10.6875 6.1875C10.9982 6.1875 11.25 6.43934 11.25 6.75V12.375C11.25 12.6857 10.9982 12.9375 10.6875 12.9375C10.3768 12.9375 10.125 12.6857 10.125 12.375V6.75C10.125 6.43934 10.3768 6.1875 10.6875 6.1875Z" fill="#1A181B"/>
<path fill-rule="evenodd" clip-rule="evenodd" d="M14.0625 6.1875C14.3732 6.1875 14.625 6.43934 14.625 6.75V12.375C14.625 12.6857 14.3732 12.9375 14.0625 12.9375C13.7518 12.9375 13.5 12.6857 13.5 12.375V6.75C13.5 6.43934 13.7518 6.1875 14.0625 6.1875Z" fill="#1A181B"/>
<path fill-rule="evenodd" clip-rule="evenodd" d="M1.6875 12.375C1.6875 12.0643 1.93934 11.8125 2.25 11.8125H15.75C16.0607 11.8125 16.3125 12.0643 16.3125 12.375C16.3125 12.6857 16.0607 12.9375 15.75 12.9375H2.25C1.93934 12.9375 1.6875 12.6857 1.6875 12.375Z" fill="#1A181B"/>
<path fill-rule="evenodd" clip-rule="evenodd" d="M0.5625 14.625C0.5625 14.3143 0.81434 14.0625 1.125 14.0625H16.875C17.1857 14.0625 17.4375 14.3143 17.4375 14.625C17.4375 14.9357 17.1857 15.1875 16.875 15.1875H1.125C0.81434 15.1875 0.5625 14.9357 0.5625 14.625Z" fill="#1A181B"/>
</g>
</svg>
