<svg width="18" height="18" viewBox="0 0 18 18" fill="none" xmlns="http://www.w3.org/2000/svg">
<g opacity="0.8">
<path fill-rule="evenodd" clip-rule="evenodd" d="M1.125 4.5C1.125 3.87868 1.62868 3.375 2.25 3.375H15.75C16.3713 3.375 16.875 3.87868 16.875 4.5V13.5C16.875 14.1213 16.3713 14.625 15.75 14.625H2.25C1.62868 14.625 1.125 14.1213 1.125 13.5V4.5ZM2.25 7.37577V13.5H15.75V7.37577H2.25ZM15.75 6.25077H2.25V4.5H15.75V6.25077ZM7.875 11.8125C7.875 11.5018 8.12684 11.25 8.4375 11.25H9.5625C9.87316 11.25 10.125 11.5018 10.125 11.8125C10.125 12.1232 9.87316 12.375 9.5625 12.375H8.4375C8.12684 12.375 7.875 12.1232 7.875 11.8125ZM11.25 11.8125C11.25 11.5018 11.5018 11.25 11.8125 11.25H14.0625C14.3732 11.25 14.625 11.5018 14.625 11.8125C14.625 12.1232 14.3732 12.375 14.0625 12.375H11.8125C11.5018 12.375 11.25 12.1232 11.25 11.8125Z" fill="#1A181B"/>
</g>
</svg>
