<svg width="17" height="16" viewBox="0 0 17 16" fill="none" xmlns="http://www.w3.org/2000/svg">
<path fill-rule="evenodd" clip-rule="evenodd" d="M10.6138 1.78462C10.7361 1.73341 10.8674 1.70703 11 1.70703C11.1326 1.70703 11.2639 1.73341 11.3862 1.78462C11.5078 1.83554 11.6182 1.91 11.7109 2.00371L14.4962 4.78907C14.5899 4.88178 14.6644 4.99212 14.7153 5.11373C14.7665 5.23605 14.7929 5.36733 14.7929 5.49995C14.7929 5.63256 14.7665 5.76384 14.7153 5.88616C14.6644 6.00776 14.59 6.11809 14.4963 6.2108L6.85355 13.8535C6.75979 13.9473 6.63261 13.9999 6.5 13.9999H3.5C3.23478 13.9999 2.98043 13.8946 2.79289 13.7071C2.60536 13.5195 2.5 13.2652 2.5 12.9999V10.2069M10.6138 1.78462C10.4922 1.83555 10.3818 1.91002 10.2891 2.00375ZM3.5 10.2071V12.9999H6.29289L13.7929 5.49993L13.7902 5.49726L11 2.70704L10.9973 2.70976L3.5 10.2071Z" fill="#EDECEE"/>
<path fill-rule="evenodd" clip-rule="evenodd" d="M6 13.5C6 13.2239 6.22386 13 6.5 13H14C14.2761 13 14.5 13.2239 14.5 13.5C14.5 13.7761 14.2761 14 14 14H6.5C6.22386 14 6 13.7761 6 13.5Z" fill="#EDECEE"/>
<path fill-rule="evenodd" clip-rule="evenodd" d="M8.64645 3.64645C8.84171 3.45118 9.15829 3.45118 9.35355 3.64645L12.8536 7.14645C13.0488 7.34171 13.0488 7.65829 12.8536 7.85355C12.6583 8.04882 12.3417 8.04882 12.1464 7.85355L8.64645 4.35355C8.45118 4.15829 8.45118 3.84171 8.64645 3.64645Z" fill="#EDECEE"/>
</svg>
