<svg width="18" height="18" viewBox="0 0 18 18" fill="none" xmlns="http://www.w3.org/2000/svg">
<g opacity="0.8">
<path fill-rule="evenodd" clip-rule="evenodd" d="M12.375 3.375C12.375 3.06434 12.6268 2.8125 12.9375 2.8125H15.75C16.0607 2.8125 16.3125 3.06434 16.3125 3.375V6.1875C16.3125 6.49816 16.0607 6.75 15.75 6.75C15.4393 6.75 15.1875 6.49816 15.1875 6.1875V3.9375H12.9375C12.6268 3.9375 12.375 3.68566 12.375 3.375Z" fill="#1A181B"/>
<path fill-rule="evenodd" clip-rule="evenodd" d="M2.25 11.25C2.56066 11.25 2.8125 11.5018 2.8125 11.8125V14.0625H5.0625C5.37316 14.0625 5.625 14.3143 5.625 14.625C5.625 14.9357 5.37316 15.1875 5.0625 15.1875H2.25C1.93934 15.1875 1.6875 14.9357 1.6875 14.625V11.8125C1.6875 11.5018 1.93934 11.25 2.25 11.25Z" fill="#1A181B"/>
<path fill-rule="evenodd" clip-rule="evenodd" d="M15.75 11.25C16.0607 11.25 16.3125 11.5018 16.3125 11.8125V14.625C16.3125 14.9357 16.0607 15.1875 15.75 15.1875H12.9375C12.6268 15.1875 12.375 14.9357 12.375 14.625C12.375 14.3143 12.6268 14.0625 12.9375 14.0625H15.1875V11.8125C15.1875 11.5018 15.4393 11.25 15.75 11.25Z" fill="#1A181B"/>
<path fill-rule="evenodd" clip-rule="evenodd" d="M1.6875 3.375C1.6875 3.06434 1.93934 2.8125 2.25 2.8125H5.0625C5.37316 2.8125 5.625 3.06434 5.625 3.375C5.625 3.68566 5.37316 3.9375 5.0625 3.9375H2.8125V6.1875C2.8125 6.49816 2.56066 6.75 2.25 6.75C1.93934 6.75 1.6875 6.49816 1.6875 6.1875V3.375Z" fill="#1A181B"/>
<path fill-rule="evenodd" clip-rule="evenodd" d="M5.625 5.625C5.93566 5.625 6.1875 5.87684 6.1875 6.1875V11.8125C6.1875 12.1232 5.93566 12.375 5.625 12.375C5.31434 12.375 5.0625 12.1232 5.0625 11.8125V6.1875C5.0625 5.87684 5.31434 5.625 5.625 5.625Z" fill="#1A181B"/>
<path fill-rule="evenodd" clip-rule="evenodd" d="M12.375 5.625C12.6857 5.625 12.9375 5.87684 12.9375 6.1875V11.8125C12.9375 12.1232 12.6857 12.375 12.375 12.375C12.0643 12.375 11.8125 12.1232 11.8125 11.8125V6.1875C11.8125 5.87684 12.0643 5.625 12.375 5.625Z" fill="#1A181B"/>
<path fill-rule="evenodd" clip-rule="evenodd" d="M10.125 5.625C10.4357 5.625 10.6875 5.87684 10.6875 6.1875V11.8125C10.6875 12.1232 10.4357 12.375 10.125 12.375C9.81434 12.375 9.5625 12.1232 9.5625 11.8125V6.1875C9.5625 5.87684 9.81434 5.625 10.125 5.625Z" fill="#1A181B"/>
<path fill-rule="evenodd" clip-rule="evenodd" d="M7.875 5.625C8.18566 5.625 8.4375 5.87684 8.4375 6.1875V11.8125C8.4375 12.1232 8.18566 12.375 7.875 12.375C7.56434 12.375 7.3125 12.1232 7.3125 11.8125V6.1875C7.3125 5.87684 7.56434 5.625 7.875 5.625Z" fill="#1A181B"/>
</g>
</svg>
