<svg width="18" height="18" viewBox="0 0 18 18" fill="none" xmlns="http://www.w3.org/2000/svg">
<g opacity="0.8">
<path fill-rule="evenodd" clip-rule="evenodd" d="M0.5625 5.0625C0.5625 4.44118 1.06618 3.9375 1.6875 3.9375H16.3125C16.9338 3.9375 17.4375 4.44118 17.4375 5.0625V12.9375C17.4375 13.5588 16.9338 14.0625 16.3125 14.0625H1.6875C1.06618 14.0625 0.5625 13.5588 0.5625 12.9375V5.0625ZM16.3125 5.0625H1.6875V12.9375H16.3125V5.0625Z" fill="#1A181B"/>
<path fill-rule="evenodd" clip-rule="evenodd" d="M9 7.3125C8.06802 7.3125 7.3125 8.06802 7.3125 9C7.3125 9.93198 8.06802 10.6875 9 10.6875C9.93198 10.6875 10.6875 9.93198 10.6875 9C10.6875 8.06802 9.93198 7.3125 9 7.3125ZM6.1875 9C6.1875 7.4467 7.4467 6.1875 9 6.1875C10.5533 6.1875 11.8125 7.4467 11.8125 9C11.8125 10.5533 10.5533 11.8125 9 11.8125C7.4467 11.8125 6.1875 10.5533 6.1875 9Z" fill="#1A181B"/>
<path fill-rule="evenodd" clip-rule="evenodd" d="M11.9517 4.1296C12.1563 3.8958 12.5116 3.87211 12.7454 4.07668L17.2454 8.01418C17.4792 8.21875 17.5029 8.57412 17.2983 8.80792C17.0938 9.04171 16.7384 9.0654 16.5046 8.86083L12.0046 4.92333C11.7708 4.71876 11.7471 4.36339 11.9517 4.1296Z" fill="#1A181B"/>
<path fill-rule="evenodd" clip-rule="evenodd" d="M17.2983 9.1921C17.5029 9.42589 17.4792 9.78126 17.2454 9.98583L12.7454 13.9233C12.5116 14.1279 12.1563 14.1042 11.9517 13.8704C11.7471 13.6366 11.7708 13.2813 12.0046 13.0767L16.5046 9.13918C16.7384 8.93461 17.0938 8.9583 17.2983 9.1921Z" fill="#1A181B"/>
<path fill-rule="evenodd" clip-rule="evenodd" d="M6.04833 4.1296C6.2529 4.36339 6.22921 4.71876 5.99542 4.92333L1.49542 8.86083C1.26162 9.0654 0.906254 9.04171 0.701683 8.80792C0.497112 8.57412 0.520803 8.21875 0.754599 8.01418L5.2546 4.07668C5.48839 3.87211 5.84376 3.8958 6.04833 4.1296Z" fill="#1A181B"/>
<path fill-rule="evenodd" clip-rule="evenodd" d="M0.701683 9.1921C0.906254 8.9583 1.26162 8.93461 1.49542 9.13918L5.99542 13.0767C6.22921 13.2813 6.2529 13.6366 6.04833 13.8704C5.84376 14.1042 5.48839 14.1279 5.2546 13.9233L0.754599 9.98583C0.520803 9.78126 0.497112 9.42589 0.701683 9.1921Z" fill="#1A181B"/>
</g>
</svg>
