<svg width="18" height="18" viewBox="0 0 18 18" fill="none" xmlns="http://www.w3.org/2000/svg">
<g opacity="0.8">
<path fill-rule="evenodd" clip-rule="evenodd" d="M2.8125 3.9375C2.8125 3.31618 3.31618 2.8125 3.9375 2.8125H7.3125C7.93382 2.8125 8.4375 3.31618 8.4375 3.9375V7.3125C8.4375 7.93382 7.93382 8.4375 7.3125 8.4375H3.9375C3.31618 8.4375 2.8125 7.93382 2.8125 7.3125V3.9375ZM7.3125 3.9375H3.9375V7.3125H7.3125V3.9375Z" fill="#1A181B"/>
<path fill-rule="evenodd" clip-rule="evenodd" d="M2.8125 10.6875C2.8125 10.0662 3.31618 9.5625 3.9375 9.5625H7.3125C7.93382 9.5625 8.4375 10.0662 8.4375 10.6875V14.0625C8.4375 14.6838 7.93382 15.1875 7.3125 15.1875H3.9375C3.31618 15.1875 2.8125 14.6838 2.8125 14.0625V10.6875ZM7.3125 10.6875H3.9375V14.0625H7.3125V10.6875Z" fill="#1A181B"/>
<path fill-rule="evenodd" clip-rule="evenodd" d="M9.5625 3.9375C9.5625 3.31618 10.0662 2.8125 10.6875 2.8125H14.0625C14.6838 2.8125 15.1875 3.31618 15.1875 3.9375V7.3125C15.1875 7.93382 14.6838 8.4375 14.0625 8.4375H10.6875C10.0662 8.4375 9.5625 7.93382 9.5625 7.3125V3.9375ZM14.0625 3.9375H10.6875V7.3125H14.0625V3.9375Z" fill="#1A181B"/>
<path fill-rule="evenodd" clip-rule="evenodd" d="M10.125 9.5625C10.4357 9.5625 10.6875 9.81434 10.6875 10.125V12.375C10.6875 12.6857 10.4357 12.9375 10.125 12.9375C9.81434 12.9375 9.5625 12.6857 9.5625 12.375V10.125C9.5625 9.81434 9.81434 9.5625 10.125 9.5625Z" fill="#1A181B"/>
<path fill-rule="evenodd" clip-rule="evenodd" d="M12.375 9.5625C12.6857 9.5625 12.9375 9.81434 12.9375 10.125V14.625C12.9375 14.9357 12.6857 15.1875 12.375 15.1875H10.125C9.81434 15.1875 9.5625 14.9357 9.5625 14.625C9.5625 14.3143 9.81434 14.0625 10.125 14.0625H11.8125V10.125C11.8125 9.81434 12.0643 9.5625 12.375 9.5625Z" fill="#1A181B"/>
<path fill-rule="evenodd" clip-rule="evenodd" d="M11.8125 11.25C11.8125 10.9393 12.0643 10.6875 12.375 10.6875H14.625C14.9357 10.6875 15.1875 10.9393 15.1875 11.25C15.1875 11.5607 14.9357 11.8125 14.625 11.8125H12.375C12.0643 11.8125 11.8125 11.5607 11.8125 11.25Z" fill="#1A181B"/>
<path fill-rule="evenodd" clip-rule="evenodd" d="M14.625 12.9375C14.9357 12.9375 15.1875 13.1893 15.1875 13.5V14.625C15.1875 14.9357 14.9357 15.1875 14.625 15.1875C14.3143 15.1875 14.0625 14.9357 14.0625 14.625V13.5C14.0625 13.1893 14.3143 12.9375 14.625 12.9375Z" fill="#1A181B"/>
</g>
</svg>
