<svg width="25" height="24" viewBox="0 0 25 24" fill="none" xmlns="http://www.w3.org/2000/svg">
<path fill-rule="evenodd" clip-rule="evenodd" d="M11.787 1.32413C12.089 1.26499 12.4009 1.2811 12.6952 1.37103C12.9891 1.46084 13.2565 1.62153 13.4737 1.83894C13.4739 1.83921 13.4742 1.83948 13.4745 1.83975L23.2576 11.6229C23.4328 11.7955 23.5721 12.0011 23.6675 12.2278C23.764 12.4569 23.8136 12.703 23.8136 12.9516C23.8136 13.2002 23.764 13.4463 23.6675 13.6754C23.5721 13.9021 23.4328 14.1077 23.2576 14.2803L14.7803 22.7576C14.6077 22.9328 14.4021 23.0721 14.1754 23.1675C13.9463 23.264 13.7002 23.3136 13.4516 23.3136C13.203 23.3136 12.9569 23.264 12.7278 23.1675C12.5011 23.0721 12.2955 22.9328 12.1229 22.7576L2.33975 12.9745C2.33947 12.9742 2.33919 12.9739 2.33892 12.9737C2.12152 12.7564 1.96084 12.4891 1.87103 12.1952C1.7811 11.9009 1.76499 11.589 1.82413 11.287L1.8249 11.2831L1.8249 11.2831L3.33428 3.71743C3.42321 3.27166 3.77166 2.92321 4.21743 2.83428L11.7831 1.3249L12.0032 2.42816L11.787 1.32413ZM11.8824 3.42963L11.8827 3.42991C11.8826 3.42981 11.8825 3.42972 11.8824 3.42963ZM11.8818 3.42907L11.8824 3.42963C11.8822 3.42944 11.882 3.42926 11.8818 3.42907ZM12.0239 3.57118L21.4044 12.9516L13.4516 20.9044L4.07118 11.5239L5.39391 4.89391L12.0239 3.57118Z" fill="#3E3A40"/>
<path d="M8.375 9.375C9.20343 9.375 9.875 8.70343 9.875 7.875C9.875 7.04657 9.20343 6.375 8.375 6.375C7.54657 6.375 6.875 7.04657 6.875 7.875C6.875 8.70343 7.54657 9.375 8.375 9.375Z" fill="#3E3A40"/>
</svg>
