<svg width="16" height="16" viewBox="0 0 16 16" fill="none" xmlns="http://www.w3.org/2000/svg">
<path d="M8.00001 1.5C6.87113 1.49991 5.7617 1.79383 4.78094 2.35281C3.80017 2.91179 2.9819 3.71655 2.40667 4.68788C1.83145 5.6592 1.51911 6.76359 1.5004 7.8923C1.4817 9.02102 1.75728 10.1352 2.30001 11.125L1.76876 13C1.7192 13.1709 1.71641 13.3519 1.76069 13.5242C1.80497 13.6965 1.89469 13.8537 2.02048 13.9795C2.14627 14.1053 2.30353 14.195 2.47582 14.2393C2.64812 14.2836 2.82915 14.2808 3.00001 14.2312L4.87501 13.7C5.74393 14.1762 6.71024 14.4475 7.70008 14.4931C8.68991 14.5387 9.67707 14.3574 10.5861 13.963C11.4951 13.5686 12.3019 12.9717 12.9449 12.2177C13.5879 11.4638 14.0499 10.5728 14.2958 9.61289C14.5417 8.65299 14.5649 7.64959 14.3635 6.67938C14.1622 5.70916 13.7417 4.79781 13.1343 4.01499C12.5268 3.23217 11.7483 2.5986 10.8585 2.16271C9.96862 1.72682 8.99089 1.50014 8.00001 1.5V1.5ZM9.50626 12H9.50001C8.04074 11.9983 6.64181 11.4175 5.61054 10.385C4.57927 9.35261 4 7.95302 4.00001 6.49375C4.00166 5.8981 4.23944 5.3274 4.66122 4.9068C5.083 4.48619 5.65435 4.25 6.25001 4.25C6.41374 4.25036 6.57449 4.29388 6.71604 4.37618C6.85759 4.45847 6.97494 4.57664 7.05626 4.71875L7.78751 6C7.87581 6.15344 7.92125 6.32781 7.91905 6.50484C7.91685 6.68186 7.8671 6.85505 7.77501 7.00625L7.33126 7.75C7.55438 8.12941 7.8706 8.44563 8.25001 8.66875L8.99375 8.225C9.14496 8.13291 9.31814 8.08316 9.49517 8.08096C9.6722 8.07876 9.84656 8.12419 10 8.2125L11.2813 8.94375C11.4234 9.02507 11.5415 9.14242 11.6238 9.28397C11.7061 9.42552 11.7496 9.58627 11.75 9.75C11.75 10.3457 11.5138 10.917 11.0932 11.3388C10.6726 11.7606 10.1019 11.9983 9.50626 12V12Z" fill="#EDECEE"/>
<path d="M8.53125 9.66875C8.46171 9.70941 8.38347 9.7329 8.30303 9.73724C8.22259 9.74159 8.14227 9.72668 8.06875 9.69375C7.28283 9.34541 6.65459 8.71717 6.30625 7.93125C6.27332 7.85773 6.25841 7.77741 6.26276 7.69697C6.26711 7.61653 6.29059 7.53829 6.33125 7.46875L6.91875 6.49375L6.2125 5.25C5.88809 5.25815 5.57971 5.39278 5.35317 5.62515C5.12664 5.85752 4.9999 6.16923 5 6.49375C4.99918 7.08522 5.11497 7.67106 5.34075 8.21774C5.56653 8.76443 5.89787 9.26125 6.31581 9.67977C6.73376 10.0983 7.23011 10.4303 7.77648 10.6569C8.32286 10.8834 8.90853 11 9.5 11H9.50625C9.83077 11.0001 10.1425 10.8734 10.3749 10.6468C10.6072 10.4203 10.7419 10.1119 10.75 9.7875L9.50625 9.08125L8.53125 9.66875Z" fill="#EDECEE"/>
</svg>
